<svg width="157" height="39" viewBox="0 0 157 39" fill="none" xmlns="http://www.w3.org/2000/svg">
<path d="M0.78562 38V17.7764L8.58536 25.5761V38H0.78562ZM22.792 1.1741H30.5918V38H28.6975L23.182 32.4845L13.9337 23.2362L8.58536 17.8878L0.78562 10.0881V5.40824V1.89836V0.951251H2.67984L22.792 21.0077V1.1741ZM48.4067 1.73122L56.3735 16.105L51.4709 24.9076L39.437 3.12403L38.3784 1.22981H48.1281L48.4067 1.73122ZM70.8588 1.22981H80.6641L79.6056 3.12403L60.6077 38H58.5463L54.5907 30.5345L59.4934 21.732L60.4405 20.0606L62.0562 17.1636L70.5802 1.73122L70.8588 1.22981ZM98.9104 35.8272L111 14.0437L115.903 22.8462L107.936 37.2757L107.546 38H97.7404L98.9104 35.8272ZM139.135 35.8272L140.305 38H130.499L130.109 37.2757L122.755 24.0162L119.134 17.4978L119.023 17.275L114.12 8.41671L114.51 7.69245L117.685 1.89836L118.075 1.11839H119.97L120.304 1.89836L123.535 7.69245L139.135 35.8272ZM148.282 1.1741H156.082V38H148.282V1.1741Z" fill="black"/>
<path d="M84.4722 34.1001C84.4722 32.3916 84.9364 31.2031 85.865 30.5345C86.7935 29.8288 87.9263 29.476 89.2634 29.476C90.5634 29.476 91.6776 29.8288 92.6062 30.5345C93.5347 31.2031 93.999 32.3916 93.999 34.1001C93.999 35.7344 93.5347 36.9229 92.6062 37.6657C91.6776 38.3714 90.5634 38.7243 89.2634 38.7243C87.9263 38.7243 86.7935 38.3714 85.865 37.6657C84.9364 36.9229 84.4722 35.7344 84.4722 34.1001Z" fill="#7356E8"/>
</svg>
