<svg width="41" height="8" viewBox="0 0 41 8" fill="none" xmlns="http://www.w3.org/2000/svg">
<path d="M3.801 2.549C3.801 2.955 3.661 3.29333 3.381 3.564C3.10567 3.83 2.68333 3.963 2.114 3.963H1.176V6H0.539V1.121H2.114C2.66467 1.121 3.08233 1.254 3.367 1.52C3.65633 1.786 3.801 2.129 3.801 2.549ZM2.114 3.438C2.46867 3.438 2.73 3.361 2.898 3.207C3.066 3.053 3.15 2.83367 3.15 2.549C3.15 1.947 2.80467 1.646 2.114 1.646H1.176V3.438H2.114ZM6.26571 6.063C5.90638 6.063 5.57971 5.98133 5.28571 5.818C4.99638 5.65467 4.76771 5.42367 4.59971 5.125C4.43638 4.82167 4.35471 4.47167 4.35471 4.075C4.35471 3.683 4.43871 3.33767 4.60671 3.039C4.77938 2.73567 5.01271 2.50467 5.30671 2.346C5.60071 2.18267 5.92971 2.101 6.29371 2.101C6.65771 2.101 6.98671 2.18267 7.28071 2.346C7.57471 2.50467 7.80571 2.73333 7.97371 3.032C8.14638 3.33067 8.23271 3.67833 8.23271 4.075C8.23271 4.47167 8.14404 4.82167 7.96671 5.125C7.79404 5.42367 7.55838 5.65467 7.25971 5.818C6.96104 5.98133 6.62971 6.063 6.26571 6.063ZM6.26571 5.503C6.49438 5.503 6.70904 5.44933 6.90971 5.342C7.11038 5.23467 7.27138 5.07367 7.39271 4.859C7.51871 4.64433 7.58171 4.383 7.58171 4.075C7.58171 3.767 7.52104 3.50567 7.39971 3.291C7.27838 3.07633 7.11971 2.91767 6.92371 2.815C6.72771 2.70767 6.51538 2.654 6.28671 2.654C6.05338 2.654 5.83871 2.70767 5.64271 2.815C5.45138 2.91767 5.29738 3.07633 5.18071 3.291C5.06404 3.50567 5.00571 3.767 5.00571 4.075C5.00571 4.38767 5.06171 4.65133 5.17371 4.866C5.29038 5.08067 5.44438 5.24167 5.63571 5.349C5.82704 5.45167 6.03704 5.503 6.26571 5.503ZM14.1803 2.164L12.9833 6H12.3253L11.4013 2.955L10.4773 6H9.81925L8.61525 2.164H9.26625L10.1483 5.384L11.1003 2.164H11.7513L12.6823 5.391L13.5503 2.164H14.1803ZM18.3124 3.935C18.3124 4.05633 18.3054 4.18467 18.2914 4.32H15.2254C15.2488 4.698 15.3771 4.99433 15.6104 5.209C15.8484 5.419 16.1354 5.524 16.4714 5.524C16.7468 5.524 16.9754 5.461 17.1574 5.335C17.3441 5.20433 17.4748 5.03167 17.5494 4.817H18.2354C18.1328 5.18567 17.9274 5.48667 17.6194 5.72C17.3114 5.94867 16.9288 6.063 16.4714 6.063C16.1074 6.063 15.7808 5.98133 15.4914 5.818C15.2068 5.65467 14.9828 5.42367 14.8194 5.125C14.6561 4.82167 14.5744 4.47167 14.5744 4.075C14.5744 3.67833 14.6538 3.33067 14.8124 3.032C14.9711 2.73333 15.1928 2.50467 15.4774 2.346C15.7668 2.18267 16.0981 2.101 16.4714 2.101C16.8354 2.101 17.1574 2.18033 17.4374 2.339C17.7174 2.49767 17.9321 2.717 18.0814 2.997C18.2354 3.27233 18.3124 3.585 18.3124 3.935ZM17.6544 3.802C17.6544 3.55933 17.6008 3.35167 17.4934 3.179C17.3861 3.00167 17.2391 2.86867 17.0524 2.78C16.8704 2.68667 16.6674 2.64 16.4434 2.64C16.1214 2.64 15.8461 2.74267 15.6174 2.948C15.3934 3.15333 15.2651 3.438 15.2324 3.802H17.6544ZM19.7903 2.787C19.9023 2.56767 20.0609 2.39733 20.2663 2.276C20.4763 2.15467 20.7306 2.094 21.0293 2.094V2.752H20.8613C20.1473 2.752 19.7903 3.13933 19.7903 3.914V6H19.1533V2.164H19.7903V2.787ZM25.2646 3.935C25.2646 4.05633 25.2576 4.18467 25.2436 4.32H22.1776C22.2009 4.698 22.3293 4.99433 22.5626 5.209C22.8006 5.419 23.0876 5.524 23.4236 5.524C23.6989 5.524 23.9276 5.461 24.1096 5.335C24.2963 5.20433 24.4269 5.03167 24.5016 4.817H25.1876C25.0849 5.18567 24.8796 5.48667 24.5716 5.72C24.2636 5.94867 23.8809 6.063 23.4236 6.063C23.0596 6.063 22.7329 5.98133 22.4436 5.818C22.1589 5.65467 21.9349 5.42367 21.7716 5.125C21.6083 4.82167 21.5266 4.47167 21.5266 4.075C21.5266 3.67833 21.6059 3.33067 21.7646 3.032C21.9233 2.73333 22.1449 2.50467 22.4296 2.346C22.7189 2.18267 23.0503 2.101 23.4236 2.101C23.7876 2.101 24.1096 2.18033 24.3896 2.339C24.6696 2.49767 24.8843 2.717 25.0336 2.997C25.1876 3.27233 25.2646 3.585 25.2646 3.935ZM24.6066 3.802C24.6066 3.55933 24.5529 3.35167 24.4456 3.179C24.3383 3.00167 24.1913 2.86867 24.0046 2.78C23.8226 2.68667 23.6196 2.64 23.3956 2.64C23.0736 2.64 22.7983 2.74267 22.5696 2.948C22.3456 3.15333 22.2173 3.438 22.1846 3.802H24.6066ZM25.8674 4.068C25.8674 3.676 25.9467 3.333 26.1054 3.039C26.2641 2.74033 26.4811 2.50933 26.7564 2.346C27.0364 2.18267 27.3491 2.101 27.6944 2.101C27.9931 2.101 28.2707 2.171 28.5274 2.311C28.7841 2.44633 28.9801 2.626 29.1154 2.85V0.82H29.7594V6H29.1154V5.279C28.9894 5.50767 28.8027 5.69667 28.5554 5.846C28.3081 5.99067 28.0187 6.063 27.6874 6.063C27.3467 6.063 27.0364 5.979 26.7564 5.811C26.4811 5.643 26.2641 5.40733 26.1054 5.104C25.9467 4.80067 25.8674 4.45533 25.8674 4.068ZM29.1154 4.075C29.1154 3.78567 29.0571 3.53367 28.9404 3.319C28.8237 3.10433 28.6651 2.941 28.4644 2.829C28.2684 2.71233 28.0514 2.654 27.8134 2.654C27.5754 2.654 27.3584 2.71 27.1624 2.822C26.9664 2.934 26.8101 3.09733 26.6934 3.312C26.5767 3.52667 26.5184 3.77867 26.5184 4.068C26.5184 4.362 26.5767 4.61867 26.6934 4.838C26.8101 5.05267 26.9664 5.21833 27.1624 5.335C27.3584 5.447 27.5754 5.503 27.8134 5.503C28.0514 5.503 28.2684 5.447 28.4644 5.335C28.6651 5.21833 28.8237 5.05267 28.9404 4.838C29.0571 4.61867 29.1154 4.36433 29.1154 4.075ZM33.3391 2.878C33.4698 2.64933 33.6611 2.46267 33.9131 2.318C34.1651 2.17333 34.4521 2.101 34.7741 2.101C35.1194 2.101 35.4298 2.18267 35.7051 2.346C35.9804 2.50933 36.1974 2.74033 36.3561 3.039C36.5148 3.333 36.5941 3.676 36.5941 4.068C36.5941 4.45533 36.5148 4.80067 36.3561 5.104C36.1974 5.40733 35.9781 5.643 35.6981 5.811C35.4228 5.979 35.1148 6.063 34.7741 6.063C34.4428 6.063 34.1511 5.99067 33.8991 5.846C33.6518 5.70133 33.4651 5.517 33.3391 5.293V6H32.7021V0.82H33.3391V2.878ZM35.9431 4.068C35.9431 3.77867 35.8848 3.52667 35.7681 3.312C35.6514 3.09733 35.4928 2.934 35.2921 2.822C35.0961 2.71 34.8791 2.654 34.6411 2.654C34.4078 2.654 34.1908 2.71233 33.9901 2.829C33.7941 2.941 33.6354 3.10667 33.5141 3.326C33.3974 3.54067 33.3391 3.79033 33.3391 4.075C33.3391 4.36433 33.3974 4.61867 33.5141 4.838C33.6354 5.05267 33.7941 5.21833 33.9901 5.335C34.1908 5.447 34.4078 5.503 34.6411 5.503C34.8791 5.503 35.0961 5.447 35.2921 5.335C35.4928 5.21833 35.6514 5.05267 35.7681 4.838C35.8848 4.61867 35.9431 4.362 35.9431 4.068ZM40.7366 2.164L38.4266 7.806H37.7686L38.5246 5.958L36.9776 2.164H37.6846L38.8886 5.272L40.0786 2.164H40.7366Z" fill="#757575"/>
</svg>
